<svg width="361" height="55" viewBox="0 0 361 55" fill="none" xmlns="http://www.w3.org/2000/svg">
<g filter="url(#filter0_i_3_3)">
<path d="M0.875 3.25H14.7812L30.875 22.1875V8.25H25.875V3.25H42.125V8.25H37.125V42H33.375L12.125 17V37H17.125V42H0.875V37H5.875V8.25H0.875V3.25ZM54.3906 13.7969C56.224 13.0781 58.1667 12.7188 60.2188 12.7188C62.2708 12.7188 64.2083 13.0781 66.0312 13.7969C67.8646 14.5156 69.4583 15.5208 70.8125 16.8125C72.1667 18.0938 73.2344 19.6771 74.0156 21.5625C74.8073 23.4479 75.2031 25.5 75.2031 27.7188C75.2031 29.9375 74.8073 31.9896 74.0156 33.875C73.2344 35.7604 72.1667 37.349 70.8125 38.6406C69.4583 39.9219 67.8646 40.9219 66.0312 41.6406C64.2083 42.3594 62.2708 42.7188 60.2188 42.7188C58.1667 42.7188 56.224 42.3594 54.3906 41.6406C52.5677 40.9219 50.9792 39.9219 49.625 38.6406C48.2812 37.349 47.2135 35.7604 46.4219 33.875C45.6406 31.9896 45.25 29.9375 45.25 27.7188C45.25 25.5 45.6406 23.4479 46.4219 21.5625C47.2135 19.6771 48.2812 18.0938 49.625 16.8125C50.9792 15.5208 52.5677 14.5156 54.3906 13.7969ZM60.2188 17.7188C59.4896 17.7188 58.8385 17.8229 58.2656 18.0312C57.6927 18.2396 57.1667 18.5833 56.6875 19.0625C56.2083 19.5417 55.8125 20.1615 55.5 20.9219C55.1979 21.6823 54.9583 22.6302 54.7812 23.7656C54.6146 24.901 54.5312 26.2188 54.5312 27.7188C54.5312 29.2188 54.6146 30.5365 54.7812 31.6719C54.9583 32.8073 55.1979 33.7552 55.5 34.5156C55.8125 35.276 56.2083 35.8958 56.6875 36.375C57.1667 36.8542 57.6927 37.1979 58.2656 37.4062C58.8385 37.6146 59.4896 37.7188 60.2188 37.7188C61.1354 37.7188 61.9323 37.5469 62.6094 37.2031C63.2865 36.849 63.875 36.2865 64.375 35.5156C64.8854 34.7448 65.2656 33.7083 65.5156 32.4062C65.776 31.1042 65.9062 29.5417 65.9062 27.7188C65.9062 25.8958 65.776 24.3333 65.5156 23.0312C65.2656 21.7292 64.8854 20.6927 64.375 19.9219C63.875 19.151 63.2865 18.5938 62.6094 18.25C61.9323 17.8958 61.1354 17.7188 60.2188 17.7188ZM86.75 7H89.875V13.25H98.625V18.25H89.875V34.5C89.875 35.2083 90.0729 35.8021 90.4688 36.2812C90.875 36.7604 91.5104 37 92.375 37C93.3438 37 94.1667 36.6823 94.8438 36.0469C95.5208 35.401 95.9479 34.4688 96.125 33.25L99.875 33.875C99.7188 35.0938 99.4167 36.224 98.9688 37.2656C98.5312 38.2969 97.9583 39.2188 97.25 40.0312C96.5417 40.8333 95.6615 41.4688 94.6094 41.9375C93.5677 42.3958 92.4062 42.625 91.125 42.625C88.0104 42.625 85.5625 41.901 83.7812 40.4531C82.0104 38.9948 81.125 37.0104 81.125 34.5V18.25H78V13.25H78.625C80.2292 13.25 81.6458 12.7917 82.875 11.875C84.1042 10.9583 85.3958 9.33333 86.75 7ZM106.328 9.92188C105.359 8.94271 104.875 7.76042 104.875 6.375C104.875 4.98958 105.359 3.8125 106.328 2.84375C107.307 1.86458 108.49 1.375 109.875 1.375C111.26 1.375 112.438 1.86458 113.406 2.84375C114.385 3.8125 114.875 4.98958 114.875 6.375C114.875 7.76042 114.385 8.94271 113.406 9.92188C112.438 10.8906 111.26 11.375 109.875 11.375C108.49 11.375 107.307 10.8906 106.328 9.92188ZM102.375 13.25H114.25V37H117.375V42H102.375V37H105.5V18.25H102.375V13.25ZM119.875 18.25V13.25H124.25C124.25 9.33333 125.365 6.27083 127.594 4.0625C129.823 1.85417 133.083 0.75 137.375 0.75C138.979 0.75 140.339 0.890625 141.453 1.17188C142.568 1.44271 143.417 1.79688 144 2.23438C144.583 2.67188 145.068 3.21875 145.453 3.875C145.901 4.625 146.125 5.45833 146.125 6.375C146.125 7.76042 145.635 8.94271 144.656 9.92188C143.688 10.8906 142.51 11.375 141.125 11.375C139.74 11.375 138.557 10.8906 137.578 9.92188C136.609 8.94271 136.125 7.76042 136.125 6.375C136.125 6.16667 136.135 5.95833 136.156 5.75C136.146 5.75 136.135 5.75 136.125 5.75C135.042 5.75 134.25 6.36458 133.75 7.59375C133.25 8.82292 133 10.7083 133 13.25H142.375V18.25H133V37H139.875V42H121.125V37H124.25V18.25H119.875ZM146.328 51.6406C145.776 50.8073 145.5 49.8854 145.5 48.875C145.5 47.4896 145.984 46.3073 146.953 45.3281C147.932 44.3594 149.115 43.875 150.5 43.875C151.885 43.875 153.062 44.3594 154.031 45.3281C155.01 46.3073 155.5 47.4896 155.5 48.875C155.5 49.1667 155.474 49.4479 155.422 49.7188C155.464 49.7292 155.5 49.7344 155.531 49.7344C156.281 49.7344 157.198 48.4948 158.281 46.0156L159.453 43.3281L148.438 18.25H145.5V13.25H163V18.25H157.859L162.812 29.5C163.448 30.9792 163.906 32.2292 164.188 33.25C164.469 32.2292 164.927 30.9792 165.562 29.5L170.5 18.25H166.125V13.25H179.25V18.25H175.938L165.5 42C164.958 43.2292 164.469 44.2865 164.031 45.1719C163.604 46.0677 163.12 46.974 162.578 47.8906C162.047 48.8177 161.531 49.599 161.031 50.2344C160.531 50.8698 159.964 51.474 159.328 52.0469C158.703 52.6198 158.052 53.0729 157.375 53.4062C156.698 53.75 155.948 54.0156 155.125 54.2031C154.302 54.401 153.417 54.5 152.469 54.5C151.583 54.5 150.802 54.4271 150.125 54.2812C149.448 54.1458 148.87 53.9375 148.391 53.6562C147.922 53.3854 147.531 53.0885 147.219 52.7656C146.906 52.4531 146.609 52.0781 146.328 51.6406Z" fill="#3B82F6"/>
<path d="M182.375 42V37H187.375V8.25H182.375V3.25H198.625C202.406 3.25 205.37 3.36979 207.516 3.60938C209.672 3.84896 211.349 4.22396 212.547 4.73438C213.755 5.23438 214.865 5.98958 215.875 7C216.781 7.90625 217.464 9.04688 217.922 10.4219C218.391 11.7865 218.625 13.25 218.625 14.8125C218.625 16.0833 218.458 17.2604 218.125 18.3438C217.802 19.4167 217.339 20.3698 216.734 21.2031C216.141 22.026 215.406 22.7656 214.531 23.4219C213.667 24.0677 212.708 24.6146 211.656 25.0625C210.604 25.5104 209.438 25.8802 208.156 26.1719C206.885 26.4635 205.568 26.6771 204.203 26.8125C202.849 26.9375 201.406 27 199.875 27H197.375V37H203.625V42H182.375ZM197.375 22H199.875C204.875 22 207.375 19.7083 207.375 15.125C207.375 14.3333 207.318 13.6146 207.203 12.9688C207.099 12.3229 206.901 11.6979 206.609 11.0938C206.318 10.4896 205.943 9.98438 205.484 9.57812C205.026 9.17188 204.427 8.84896 203.688 8.60938C202.948 8.36979 202.094 8.25 201.125 8.25H197.375V22ZM247.688 23.1719V37H250.812V42H241.078L239.688 38.75C238.625 40.2708 237.391 41.3125 235.984 41.875C234.589 42.4375 232.635 42.7188 230.125 42.7188C228.823 42.7188 227.609 42.4896 226.484 42.0312C225.37 41.5833 224.417 40.9688 223.625 40.1875C222.844 39.4062 222.229 38.4688 221.781 37.375C221.344 36.2812 221.125 35.1094 221.125 33.8594C221.125 31.7031 221.969 29.9167 223.656 28.5C225.344 27.0729 227.5 26.3594 230.125 26.3594C232.24 26.3594 233.99 26.5625 235.375 26.9688C236.76 27.3646 237.948 28 238.938 28.875V22.25C238.938 21.3125 238.807 20.5312 238.547 19.9062C238.297 19.2708 237.917 18.7865 237.406 18.4531C236.896 18.1094 236.323 17.8698 235.688 17.7344C235.052 17.599 234.292 17.5312 233.406 17.5312C232.698 17.5312 232.057 17.6823 231.484 17.9844C231.807 18.6615 231.969 19.375 231.969 20.125C231.969 21.5104 231.479 22.6927 230.5 23.6719C229.531 24.6406 228.354 25.125 226.969 25.125C225.583 25.125 224.401 24.6406 223.422 23.6719C222.453 22.6927 221.969 21.5104 221.969 20.125C221.969 19.4167 222.104 18.75 222.375 18.125C222.656 17.5 223.042 16.9531 223.531 16.4844C223.948 16.0469 224.38 15.6562 224.828 15.3125C225.276 14.9583 225.839 14.6094 226.516 14.2656C227.203 13.9115 227.948 13.6198 228.75 13.3906C229.552 13.1615 230.51 12.9792 231.625 12.8438C232.75 12.6979 233.979 12.625 235.312 12.625C237.042 12.625 238.667 12.8802 240.188 13.3906C241.708 13.901 243.021 14.6094 244.125 15.5156C245.229 16.4219 246.099 17.5365 246.734 18.8594C247.37 20.1823 247.688 21.6198 247.688 23.1719ZM238.938 35.0625V32.9062C238.292 32.2917 237.562 31.776 236.75 31.3594C235.948 30.9323 235.203 30.7188 234.516 30.7188C233.036 30.7188 231.995 30.9688 231.391 31.4688C230.786 31.9583 230.484 32.7552 230.484 33.8594C230.484 35.1823 230.745 36.1562 231.266 36.7812C231.786 37.4062 232.755 37.7188 234.172 37.7188C234.974 37.7188 235.807 37.4635 236.672 36.9531C237.547 36.4323 238.302 35.8021 238.938 35.0625ZM253.625 13.25H263.328L265.297 17.0469C267.141 14.099 269.75 12.625 273.125 12.625C275.385 12.625 277.177 13.3229 278.5 14.7188C279.833 16.1042 280.5 17.9062 280.5 20.125C280.5 21.5104 280.01 22.6927 279.031 23.6719C278.062 24.6406 276.885 25.125 275.5 25.125C274.115 25.125 272.932 24.6406 271.953 23.6719C270.984 22.6927 270.5 21.5104 270.5 20.125C270.5 19.5625 270.589 19.0208 270.766 18.5C270.484 18.3333 270.188 18.25 269.875 18.25C269.177 18.25 268.453 18.7083 267.703 19.625C266.964 20.5312 266.25 21.8906 265.562 23.7031L265.5 37H272.375V42H253.625V37H256.75V18.25H253.625V13.25ZM302.562 18.7344C301.375 17.9948 299.865 17.625 298.031 17.625C297.292 17.625 296.604 17.7292 295.969 17.9375C295.333 18.1354 294.724 18.4792 294.141 18.9688C293.568 19.4583 293.078 20.0781 292.672 20.8281C292.266 21.5781 291.943 22.5312 291.703 23.6875C291.464 24.8438 291.344 26.1562 291.344 27.625C291.344 29.0938 291.474 30.401 291.734 31.5469C291.995 32.6927 292.339 33.6302 292.766 34.3594C293.203 35.0885 293.724 35.6875 294.328 36.1562C294.943 36.625 295.573 36.9583 296.219 37.1562C296.865 37.3438 297.562 37.4375 298.312 37.4375C300.51 37.4375 302.224 37.0156 303.453 36.1719C304.693 35.3177 305.682 34.0052 306.422 32.2344L310.578 33.6719C310.203 34.6823 309.724 35.6354 309.141 36.5312C308.568 37.4167 307.875 38.2344 307.062 38.9844C306.25 39.7344 305.344 40.3802 304.344 40.9219C303.354 41.4531 302.234 41.8698 300.984 42.1719C299.734 42.474 298.417 42.625 297.031 42.625C294.979 42.625 293.036 42.2656 291.203 41.5469C289.38 40.8281 287.792 39.8281 286.438 38.5469C285.094 37.2552 284.026 35.6667 283.234 33.7812C282.453 31.8958 282.062 29.8438 282.062 27.625C282.062 25.8438 282.312 24.1667 282.812 22.5938C283.312 21.0208 284.016 19.6302 284.922 18.4219C285.839 17.2135 286.911 16.1719 288.141 15.2969C289.37 14.4219 290.734 13.7604 292.234 13.3125C293.734 12.8542 295.307 12.625 296.953 12.625C298.255 12.625 299.479 12.75 300.625 13C301.771 13.2396 302.792 13.5729 303.688 14C304.594 14.4167 305.438 14.9375 306.219 15.5625C307 16.1875 307.682 16.8542 308.266 17.5625C308.859 18.2604 309.411 19.0469 309.922 19.9219C310.453 20.7448 310.719 21.6458 310.719 22.625C310.719 24.0104 310.229 25.1927 309.25 26.1719C308.281 27.1406 307.104 27.625 305.719 27.625C304.333 27.625 303.151 27.1406 302.172 26.1719C301.203 25.1927 300.719 24.0104 300.719 22.625C300.719 21.8542 300.88 21.1302 301.203 20.4531C301.536 19.776 301.99 19.2031 302.562 18.7344ZM323.219 29.5C323.312 30.7083 323.51 31.7865 323.812 32.7344C324.115 33.6823 324.479 34.4583 324.906 35.0625C325.344 35.6667 325.849 36.1667 326.422 36.5625C326.995 36.9479 327.583 37.224 328.188 37.3906C328.792 37.5469 329.438 37.625 330.125 37.625C332.323 37.625 334.036 37.2031 335.266 36.3594C336.505 35.5052 337.495 34.1927 338.234 32.4219L342.391 33.8594C342.016 34.8698 341.536 35.8229 340.953 36.7188C340.38 37.6042 339.688 38.4219 338.875 39.1719C338.062 39.9219 337.156 40.5677 336.156 41.1094C335.167 41.6406 334.047 42.0573 332.797 42.3594C331.547 42.6615 330.229 42.8125 328.844 42.8125C326.792 42.8125 324.849 42.4531 323.016 41.7344C321.193 41.0156 319.604 40.0156 318.25 38.7344C316.906 37.4427 315.839 35.8542 315.047 33.9688C314.266 32.0833 313.875 30.0312 313.875 27.8125C313.875 25.5938 314.266 23.5312 315.047 21.625C315.839 19.7188 316.906 18.1146 318.25 16.8125C319.604 15.5 321.193 14.474 323.016 13.7344C324.849 12.9948 326.792 12.625 328.844 12.625C330.896 12.625 332.833 12.9948 334.656 13.7344C336.49 14.474 338.078 15.5 339.422 16.8125C340.776 18.1146 341.844 19.7188 342.625 21.625C343.417 23.5312 343.812 25.5938 343.812 27.8125L343.422 29.5H323.219ZM323.328 24.5H334.359C334.089 22.1042 333.49 20.3594 332.562 19.2656C331.635 18.1719 330.406 17.625 328.875 17.625C328.115 17.625 327.432 17.75 326.828 18C326.224 18.2396 325.682 18.6302 325.203 19.1719C324.724 19.7031 324.323 20.4167 324 21.3125C323.688 22.1979 323.464 23.2604 323.328 24.5ZM345.062 3.25H356.938V37H360.062V42H345.062V37H348.188V8.25H345.062V3.25Z" fill="#6B7280"/>
</g>
<defs>
<filter id="filter0_i_3_3" x="0.875" y="0.75" width="359.188" height="57.75" filterUnits="userSpaceOnUse" color-interpolation-filters="sRGB">
<feFlood flood-opacity="0" result="BackgroundImageFix"/>
<feBlend mode="normal" in="SourceGraphic" in2="BackgroundImageFix" result="shape"/>
<feColorMatrix in="SourceAlpha" type="matrix" values="0 0 0 0 0 0 0 0 0 0 0 0 0 0 0 0 0 0 127 0" result="hardAlpha"/>
<feOffset dy="4"/>
<feGaussianBlur stdDeviation="2"/>
<feComposite in2="hardAlpha" operator="arithmetic" k2="-1" k3="1"/>
<feColorMatrix type="matrix" values="0 0 0 0 0 0 0 0 0 0 0 0 0 0 0 0 0 0 0.25 0"/>
<feBlend mode="normal" in2="shape" result="effect1_innerShadow_3_3"/>
</filter>
</defs>
</svg>
